<?xml version="1.0" standalone="no"?>
<!DOCTYPE svg PUBLIC "-//W3C//DTD SVG 20010904//EN"
 "http://www.w3.org/TR/2001/REC-SVG-20010904/DTD/svg10.dtd">
<svg version="1.0" xmlns="http://www.w3.org/2000/svg"
 width="700.000000pt" height="700.000000pt" viewBox="0 0 700.000000 700.000000"
 preserveAspectRatio="xMidYMid meet">
<metadata>
Created by potrace 1.14, written by Peter Selinger 2001-2017
</metadata>
<g transform="translate(0.000000,700.000000) scale(0.100000,-0.100000)"
fill="#000000" stroke="none">
<path d="M3330 6989 c-789 -35 -1566 -360 -2166 -907 -325 -297 -577 -634
-779 -1044 -450 -913 -472 -1991 -59 -2928 118 -269 285 -543 470 -775 113
-141 398 -426 539 -539 524 -418 1116 -662 1815 -748 137 -17 581 -16 725 0
989 116 1834 596 2419 1372 551 732 789 1639 671 2551 -166 1276 -1049 2375
-2262 2814 -441 160 -880 225 -1373 204z m1140 -987 c303 -78 535 -233 724
-483 56 -73 151 -266 190 -384 92 -281 107 -585 45 -872 -117 -543 -521 -1028
-1094 -1315 -266 -134 -658 -254 -977 -299 -79 -12 -88 -15 -88 -34 0 -62 75
-598 116 -825 69 -387 203 -991 270 -1223 5 -16 -21 -17 -440 -17 -415 0 -445
1 -450 18 -3 9 -28 116 -55 237 -104 452 -199 980 -266 1480 -20 149 -38 280
-40 291 -4 20 -13 22 -117 28 -407 25 -825 98 -1215 213 l-123 36 0 448 c0
285 4 449 10 449 5 0 43 -13 85 -30 303 -120 835 -239 1191 -266 l91 -6 6 273
c3 151 13 344 22 429 102 968 594 1625 1377 1840 144 39 242 50 438 46 166 -3
197 -7 300 -34z"/>
<path d="M4005 5185 c-145 -31 -299 -122 -432 -253 -222 -218 -331 -452 -389
-834 -9 -61 -18 -207 -21 -357 l-6 -253 44 7 c164 26 416 100 586 171 463 193
703 422 790 752 33 126 38 305 10 396 -51 166 -135 272 -261 332 -113 54 -204
65 -321 39z"/>
</g>
</svg>
